<svg xmlns="http://www.w3.org/2000/svg" viewBox="0 0 1024 1024"><g fill="none" stroke="#eedc9a" stroke-opacity=".965" stroke-width="2"><path d="M214.94 529.69c-15.48 15.25-35.31 32.64-54.59 51.05a1.12 1.11-21.7 0 0-.35.81v32.95a.5.5 0 0 0 .5.5h148a.5.5 0 0 0 .5-.5v-36.75a.5.5 0 0 0-.5-.5h-89.24a1.09 1.09 0 0 1-.78-1.86q2.74-2.79 5.63-5.27c21.09-18.12 43.31-36.06 59.9-58.58 35.54-48.28 14.74-103.98-47.5-106.73-29.34-1.3-58.96 9.43-75.9 33.83a.9.89-53.9 0 0 .19 1.23l31.32 24.02a.49.49 0 0 0 .69-.09q14.28-18.13 37.2-20.75c11.86-1.35 22.25 4.77 25.67 16.07 6.6 21.78-26.43 56.45-40.74 70.57M440.11 617.95c41.45-9.32 54.2-49.07 56.63-86.12q1.7-25.74-1.53-51.32c-4.06-32.22-17.54-63.26-51.95-72.54-20.99-5.67-49.13-4.1-68.34 7.61-23.3 14.2-32.21 42.16-34.91 67.92q-3.72 35.51 1.68 70.21c4.31 27.76 17.69 52 45.31 61.75 16 5.65 36.55 6.22 53.11 2.49M750.55 505.23a.4.4 0 0 1-.01.7c-20.48 11.38-33.94 26.61-36.73 50.04-4.15 34.7 18.83 54.66 50.68 61.05q32.41 6.51 62.79-3.05c29.46-9.28 45.56-33.18 38.63-64.41-4.62-20.8-22.73-34.17-40.74-43.86a.68.68 0 0 1 .01-1.2c16.02-8.2 30.98-16.53 34.44-36.07 4.93-27.91-7.76-48.68-34.37-57.67q-35.97-12.15-72.06.7c-20.13 7.16-33.2 20.96-33.88 42.78-.86 27.69 8.58 37.95 31.24 50.99M664.25 580.5h25.5a.5.5 0 0 0 .5-.5v-33.77a.53.52 90 0 0-.52-.53l-25.22.07a.76.76 0 0 1-.76-.76V410.5a.75.75 0 0 0-.75-.75h-40.44a1.17 1.17 0 0 0-.93.46l-99.55 131.87a1.63 1.61 63.6 0 0-.32.97v36.98a.47.46 90 0 0 .46.47H624a.5.5 0 0 1 .5.5v33.5a.5.5 0 0 0 .5.5h38.35a.41.4 90 0 0 .4-.41V581a.5.5 0 0 1 .5-.5" vector-effect="non-scaling-stroke"/><path d="M433.99 578.46c23.7-17.38 21.43-72.79 17.33-98.35-2.71-16.87-9.91-34.8-28.84-37.51-43.01-6.14-41.36 62.18-39.7 86.72 1.17 17.2 5.94 46.32 25.62 52.55q14.62 4.62 25.59-3.41M761.99 468.63c5.59 10 17.75 17.46 27.79 21.73a1.14 1.12-45.3 0 0 .92-.01c12.14-5.61 30.76-19.3 28.03-35.01-1.58-9.12-9.2-13.32-17.99-14.33-10.85-1.24-25.24-1.65-34.06 4.25-7.87 5.28-9.24 15.23-4.69 23.37M757.53 547.79c-6.64 15.42-.49 31.74 16.64 36.05 11.87 2.98 27.81 3.36 38.73-3.19 10.92-6.55 12.95-19.89 8.72-31.19-4.85-12.95-18.07-23.26-30.65-28.22a1.33 1.3 45.6 0 0-.94-.02c-12.57 4.5-27.22 14.32-32.5 26.57M624.47 466.27a.33.33 0 0 0-.59-.2l-60.65 79.15a.33.33 0 0 0 .26.53h60.69a.33.33 0 0 0 .33-.33l-.04-79.15" vector-effect="non-scaling-stroke"/></g><path fill="#debb3a" fill-opacity=".925" d="M156.81 0h710.75c39.2 1.2 75.9 15.54 104.52 42.03q49 45.37 51.92 114.28v712c-2.96 84.6-68.7 151.56-153.81 155.69H154.44C71.86 1020.39 3.03 955.11.34 870.84q.78-3.78.45-7.5-.05-.56.22-.07l.17.31q.34.6.32-.09l-.01-.64q-.01-.56.36-.14l.22.25q.81.95.3-.68-.31-.96.24-1.74a1.35 1.33 61.9 0 0 .26-.88q-.12-2.56-.1-5.14.02-1.84-.23-5.16-.24-3.13.12-6.29a1.6 1.59 33.9 0 0-.19-.96q-.36-.66-.01-1.29a.7.69-44.5 0 0 .01-.62q-.4-.81.06-1.38a.4.4 0 0 0-.02-.52c-.19-.21-.34-1.09-.11-1.36a.47.44 61.6 0 0 .1-.38l-.23-1.39a.3.29 77.7 0 1 .2-.33l.36-.11q.08-.02.02-.07-.75-.64-.53-1.62a.28.27 86.6 0 1 .18-.21l.36-.11q.26-.09.01-.18-1.22-.43-1.1-1.58a.14.13 82.9 0 1 .08-.11l.26-.12a.2.19-32.6 0 0 .07-.29q-.62-.8-.3-1.85a1.27 1.23-46.8 0 0-.01-.71q-.14-.45.04-.88a1.05 1.02-41.6 0 0 .05-.67q-.22-.83.01-1.64a.97.97 0 0 0-.06-.66q-.29-.56.03-1.13a.8.8 0 0 0 0-.8q-.33-.59-.01-1.19a.89.89 0 0 0 .02-.83q-.27-.55-.04-1.08a1.05 1.02-41.6 0 0 .05-.67q-.22-.83.01-1.64a.97.97 0 0 0-.06-.66q-.28-.56.03-1.14a.83.83 0 0 0 0-.8c-.28-.52 0-1.35 0-1.82V234.75q0-8.4.48-12.66.04-.33-.08-.65-.12-.33.06-.52a.42.4 62 0 0 .1-.36l-.23-1.39a.3.29 77.7 0 1 .2-.33l.36-.11q.08-.02.02-.07-.74-.63-.54-1.59a.34.33-3.2 0 1 .23-.25l.31-.09q.12-.04.01-.11-1.16-.76-.31-1.82a.38.37 42 0 0-.03-.5c-.19-.19-.36-1.09-.12-1.36a.44.44 0 0 0 .1-.37l-.23-1.4a.3.29 77.7 0 1 .2-.33l.36-.11q.08-.02.02-.07-.74-.63-.54-1.59a.34.33-3.2 0 1 .23-.25l.27-.08q.15-.05.03-.13-1.13-.77-.29-1.81a.38.37 42 0 0-.03-.5c-.19-.19-.36-1.09-.12-1.36a.44.44 0 0 0 .1-.37l-.23-1.4a.3.29 77.7 0 1 .2-.33l.36-.11q.08-.02.02-.07-.74-.63-.54-1.59a.34.33-3.2 0 1 .23-.25l.27-.08q.15-.05.03-.13-1.13-.77-.29-1.81a.38.37 42 0 0-.03-.5c-.19-.19-.36-1.09-.12-1.36a.44.44 0 0 0 .1-.37l-.23-1.4a.3.29 77.7 0 1 .2-.33l.36-.11q.08-.02.02-.07-.74-.63-.54-1.58a.35.34 87.3 0 1 .23-.26l.38-.12q.21-.07 0-.14-1.25-.41-1.15-1.55a.27.26 77.1 0 1 .13-.21c.1-.05.15-.05.14-.19q-.42-5.49.4-10.89.13-.87-.08-2.41-.17-1.23.16-2.46a1.05 1.02 37 0 0-.13-.85q-.29-.43-.01-.91a.89.89 0 0 0 .07-.75q-.3-.8.02-1.62a.74.72-48.8 0 0-.03-.58c-.22-.42.08-1.67.08-1.99q-.05-4.17.31-8.33.13-1.53-1.4-4.1a.29.29 0 0 0-.47-.03q-.33.4-.96.25v-.75C3.91 68.75 70.19 2.74 156.81 0Zm58.13 529.69c-15.48 15.25-35.31 32.64-54.59 51.05a1.12 1.11-21.7 0 0-.35.81v32.95a.5.5 0 0 0 .5.5h148a.5.5 0 0 0 .5-.5v-36.75a.5.5 0 0 0-.5-.5h-89.24a1.09 1.09 0 0 1-.78-1.86q2.74-2.79 5.63-5.27c21.09-18.12 43.31-36.06 59.9-58.58 35.54-48.28 14.74-103.98-47.5-106.73-29.34-1.3-58.96 9.43-75.9 33.83a.9.89-53.9 0 0 .19 1.23l31.32 24.02a.49.49 0 0 0 .69-.09q14.28-18.13 37.2-20.75c11.86-1.35 22.25 4.77 25.67 16.07 6.6 21.78-26.43 56.45-40.74 70.57Zm225.17 88.26c41.45-9.32 54.2-49.07 56.63-86.12q1.7-25.74-1.53-51.32c-4.06-32.22-17.54-63.26-51.95-72.54-20.99-5.67-49.13-4.1-68.34 7.61-23.3 14.2-32.21 42.16-34.91 67.92q-3.72 35.51 1.68 70.21c4.31 27.76 17.69 52 45.31 61.75 16 5.65 36.55 6.22 53.11 2.49Zm310.44-112.72a.4.4 0 0 1-.01.7c-20.48 11.38-33.94 26.61-36.73 50.04-4.15 34.7 18.83 54.66 50.68 61.05q32.41 6.51 62.79-3.05c29.46-9.28 45.56-33.18 38.63-64.41-4.62-20.8-22.73-34.17-40.74-43.86a.68.68 0 0 1 .01-1.2c16.02-8.2 30.98-16.53 34.44-36.07 4.93-27.91-7.76-48.68-34.37-57.67q-35.97-12.15-72.06.7c-20.13 7.16-33.2 20.96-33.88 42.78-.86 27.69 8.58 37.95 31.24 50.99Zm-86.3 75.27h25.5a.5.5 0 0 0 .5-.5v-33.77a.53.52 90 0 0-.52-.53l-25.22.07a.76.76 0 0 1-.76-.76V410.5a.75.75 0 0 0-.75-.75h-40.44a1.17 1.17 0 0 0-.93.46l-99.55 131.87a1.63 1.61 63.6 0 0-.32.97v36.98a.47.46 90 0 0 .46.47H624a.5.5 0 0 1 .5.5v33.5a.5.5 0 0 0 .5.5h38.35a.41.4 90 0 0 .4-.41V581a.5.5 0 0 1 .5-.5Z"/><path fill="#debb3a" fill-opacity=".925" d="M.34 870.84 0 867.69V155.94q.63.15.96-.25a.29.29 0 0 1 .47.03q1.53 2.57 1.4 4.1-.36 4.16-.31 8.33c0 .32-.3 1.57-.08 1.99a.74.72-48.8 0 1 .03.58q-.32.82-.02 1.62a.89.89 0 0 1-.07.75q-.28.48.01.91a1.05 1.02 37 0 1 .13.85q-.33 1.23-.16 2.46.21 1.54.08 2.41-.82 5.4-.4 10.89c.01.14-.04.14-.14.19a.27.26 77.1 0 0-.13.21q-.1 1.14 1.15 1.55.21.07 0 .14l-.38.12a.35.34 87.3 0 0-.23.26q-.2.95.54 1.58.06.05-.02.07l-.36.11a.3.29 77.7 0 0-.2.33l.23 1.4a.44.44 0 0 1-.1.37c-.24.27-.07 1.17.12 1.36a.38.37 42 0 1 .03.5q-.84 1.04.29 1.81.12.08-.03.13l-.27.08a.34.33-3.2 0 0-.23.25q-.2.96.54 1.59.06.05-.02.07l-.36.11a.3.29 77.7 0 0-.2.33l.23 1.4a.44.44 0 0 1-.1.37c-.24.27-.07 1.17.12 1.36a.38.37 42 0 1 .03.5q-.84 1.04.29 1.81.12.08-.03.13l-.27.08a.34.33-3.2 0 0-.23.25q-.2.96.54 1.59.06.05-.02.07l-.36.11a.3.29 77.7 0 0-.2.33l.23 1.4a.44.44 0 0 1-.1.37c-.24.27-.07 1.17.12 1.36a.38.37 42 0 1 .03.5q-.85 1.06.31 1.82.11.07-.01.11l-.31.09a.34.33-3.2 0 0-.23.25q-.2.96.54 1.59.06.05-.02.07l-.36.11a.3.29 77.7 0 0-.2.33l.23 1.39a.42.4 62 0 1-.1.36q-.18.19-.06.52.12.32.08.65-.48 4.26-.48 12.66v577.52c0 .47-.28 1.3 0 1.82a.83.83 0 0 1 0 .8q-.31.58-.03 1.14a.97.97 0 0 1 .06.66q-.23.81-.01 1.64a1.05 1.02-41.6 0 1-.05.67q-.23.53.04 1.08a.89.89 0 0 1-.02.83q-.32.6.01 1.19a.8.8 0 0 1 0 .8q-.32.57-.03 1.13a.97.97 0 0 1 .06.66q-.23.81-.01 1.64a1.05 1.02-41.6 0 1-.05.67q-.18.43-.04.88a1.27 1.23-46.8 0 1 .01.71q-.32 1.05.3 1.85a.2.19-32.6 0 1-.07.29l-.26.12a.14.13 82.9 0 0-.08.11q-.12 1.15 1.1 1.58.25.09-.01.18l-.36.11a.28.27 86.6 0 0-.18.21q-.22.98.53 1.62.06.05-.02.07l-.36.11a.3.29 77.7 0 0-.2.33l.23 1.39a.47.44 61.6 0 1-.1.38c-.23.27-.08 1.15.11 1.36a.4.4 0 0 1 .02.52q-.46.57-.06 1.38a.7.69-44.5 0 1-.01.62q-.35.63.01 1.29a1.6 1.59 33.9 0 1 .19.96q-.36 3.16-.12 6.29.25 3.32.23 5.16-.02 2.58.1 5.14a1.35 1.33 61.9 0 1-.26.88q-.55.78-.24 1.74.51 1.63-.3.68l-.22-.25q-.37-.42-.36.14l.01.64q.02.69-.32.09l-.17-.31q-.27-.49-.22.07.33 3.72-.45 7.5Z"/><path fill="#fdfbf3" d="M214.94 529.69c14.31-14.12 47.34-48.79 40.74-70.57-3.42-11.3-13.81-17.42-25.67-16.07q-22.92 2.62-37.2 20.75a.49.49 0 0 1-.69.09l-31.32-24.02a.9.89-53.9 0 1-.19-1.23c16.94-24.4 46.56-35.13 75.9-33.83 62.24 2.75 83.04 58.45 47.5 106.73-16.59 22.52-38.81 40.46-59.9 58.58q-2.89 2.48-5.63 5.27a1.09 1.09 0 0 0 .78 1.86h89.24a.5.5 0 0 1 .5.5v36.75a.5.5 0 0 1-.5.5h-148a.5.5 0 0 1-.5-.5v-32.95a1.12 1.11-21.7 0 1 .35-.81c19.28-18.41 39.11-35.8 54.59-51.05ZM496.74 531.83c-2.43 37.05-15.18 76.8-56.63 86.12-16.56 3.73-37.11 3.16-53.11-2.49-27.62-9.75-41-33.99-45.31-61.75q-5.4-34.7-1.68-70.21c2.7-25.76 11.61-53.72 34.91-67.92 19.21-11.71 47.35-13.28 68.34-7.61 34.41 9.28 47.89 40.32 51.95 72.54q3.23 25.58 1.53 51.32Zm-62.75 46.63c23.7-17.38 21.43-72.79 17.33-98.35-2.71-16.87-9.91-34.8-28.84-37.51-43.01-6.14-41.36 62.18-39.7 86.72 1.17 17.2 5.94 46.32 25.62 52.55q14.62 4.62 25.59-3.41ZM750.55 505.23c-22.66-13.04-32.1-23.3-31.24-50.99.68-21.82 13.75-35.62 33.88-42.78q36.09-12.85 72.06-.7c26.61 8.99 39.3 29.76 34.37 57.67-3.46 19.54-18.42 27.87-34.44 36.07a.68.68 0 0 0-.01 1.2c18.01 9.69 36.12 23.06 40.74 43.86 6.93 31.23-9.17 55.13-38.63 64.41q-30.38 9.56-62.79 3.05c-31.85-6.39-54.83-26.35-50.68-61.05 2.79-23.43 16.25-38.66 36.73-50.04a.4.4 0 0 0 .01-.7Zm11.44-36.6c5.59 10 17.75 17.46 27.79 21.73a1.14 1.12-45.3 0 0 .92-.01c12.14-5.61 30.76-19.3 28.03-35.01-1.58-9.12-9.2-13.32-17.99-14.33-10.85-1.24-25.24-1.65-34.06 4.25-7.87 5.28-9.24 15.23-4.69 23.37Zm-4.46 79.16c-6.64 15.42-.49 31.74 16.64 36.05 11.87 2.98 27.81 3.36 38.73-3.19 10.92-6.55 12.95-19.89 8.72-31.19-4.85-12.95-18.07-23.26-30.65-28.22a1.33 1.3 45.6 0 0-.94-.02c-12.57 4.5-27.22 14.32-32.5 26.57ZM663.75 581v33.59a.41.4-90 0 1-.4.41H625a.5.5 0 0 1-.5-.5V581a.5.5 0 0 0-.5-.5H522.22a.47.46 90 0 1-.46-.47v-36.98a1.63 1.61 63.6 0 1 .32-.97l99.55-131.87a1.17 1.17 0 0 1 .93-.46H663a.75.75 0 0 1 .75.75v134.51a.76.76 0 0 0 .76.76l25.22-.07a.53.52-90 0 1 .52.53V580a.5.5 0 0 1-.5.5h-25.5a.5.5 0 0 0-.5.5Zm-39.28-114.73a.33.33 0 0 0-.59-.2l-60.65 79.15a.33.33 0 0 0 .26.53h60.69a.33.33 0 0 0 .33-.33l-.04-79.15Z"/><path fill="#debb3a" fill-opacity=".925" d="M789.78 490.36c-10.04-4.27-22.2-11.73-27.79-21.73-4.55-8.14-3.18-18.09 4.69-23.37 8.82-5.9 23.21-5.49 34.06-4.25 8.79 1.01 16.41 5.21 17.99 14.33 2.73 15.71-15.89 29.4-28.03 35.01a1.14 1.12-45.3 0 1-.92.01ZM451.32 480.11c4.1 25.56 6.37 80.97-17.33 98.35q-10.97 8.03-25.59 3.41c-19.68-6.23-24.45-35.35-25.62-52.55-1.66-24.54-3.31-92.86 39.7-86.72 18.93 2.71 26.13 20.64 28.84 37.51ZM624.47 466.27l.04 79.15a.33.33 0 0 1-.33.33h-60.69a.33.33 0 0 1-.26-.53l60.65-79.15a.33.33 0 0 1 .59.2ZM774.17 583.84c-17.13-4.31-23.28-20.63-16.64-36.05 5.28-12.25 19.93-22.07 32.5-26.57a1.33 1.3 45.6 0 1 .94.02c12.58 4.96 25.8 15.27 30.65 28.22 4.23 11.3 2.2 24.64-8.72 31.19-10.92 6.55-26.86 6.17-38.73 3.19Z"/></svg>